<svg xmlns="http://www.w3.org/2000/svg" xmlns:xlink="http://www.w3.org/1999/xlink" viewBox="0 0 280 250" preserveAspectRatio="xMidYMid" style="display: block; shape-rendering: auto; background: transparent;" width="280" height="250"><style type="text/css">
  .ld-text text {
    text-anchor: middle;
    dominant-baseline: middle;
    font-size: 37px;
    opacity: 0;
    user-select: none;
    pointer-events: none;
  }
</style>
<g style="transform-origin:140px 125px;transform:scale(1)" class="ld-text">
<g transform="translate(140,125)">
  <g transform="scale(0.4625) translate(0,0)"><g class="path" style="opacity: 1; transform-origin: -214.32px -4.57px; transform: matrix3d(0.91, 0, 0, 0, 0, 0.91, 0, 0, 0, 0, 0.91, 0, 0, 0, 0, 1); animation: 1s linear -0.6s infinite normal forwards running animate-i6nl1h7x5h9; transform-box: view-box;"><path d="M14.80 46.87L7.20 46.87L7.20-9.13L40.40-9.13L40.40-2.57L14.80-2.57L14.80 14.55L36.16 14.55L36.16 20.79L14.80 20.79L14.80 46.87" style="fill: rgb(245, 218, 142);" transform="translate(-238.120,-23.436)"></path></g><g class="path" style="opacity: 1; transform-origin: -175.4px 2.63px; transform: matrix3d(0.91, 0, 0, 0, 0, 0.91, 0, 0, 0, 0, 0.91, 0, 0, 0, 0, 1); animation: 1s linear -0.54s infinite normal forwards running animate-i6nl1h7x5h9; transform-box: view-box;"><path d="M62.72 47.83L62.72 47.83Q56.80 47.83 52.08 45.07Q47.36 42.31 44.68 37.39Q42 32.47 42 26.07L42 26.07Q42 19.35 44.72 14.47Q47.44 9.59 52.16 6.95Q56.88 4.31 62.72 4.31L62.72 4.31Q68.56 4.31 73.24 6.95Q77.92 9.59 80.68 14.43Q83.44 19.27 83.44 25.91L83.44 25.91Q83.44 32.55 80.72 37.47Q78 42.39 73.32 45.11Q68.64 47.83 62.72 47.83 zM62.72 41.43L62.72 41.43Q69.04 41.43 72.56 37.15Q76.08 32.87 76.08 26.07L76.08 26.07Q76.08 21.91 74.32 18.43Q72.56 14.95 69.56 12.83Q66.56 10.71 62.72 10.71L62.72 10.71Q56.40 10.71 52.88 14.87Q49.36 19.03 49.36 25.91L49.36 25.91Q49.36 30.07 51.12 33.63Q52.88 37.19 55.88 39.31Q58.88 41.43 62.72 41.43" style="fill: rgb(254, 227, 145);" transform="translate(-238.120,-23.436)"></path></g><g class="path" style="opacity: 1; transform-origin: -127.56px 2.63px; transform: matrix3d(0.91, 0, 0, 0, 0, 0.91, 0, 0, 0, 0, 0.91, 0, 0, 0, 0, 1); animation: 1s linear -0.48s infinite normal forwards running animate-i6nl1h7x5h9; transform-box: view-box;"><path d="M110.56 47.83L110.56 47.83Q104.64 47.83 99.92 45.07Q95.20 42.31 92.52 37.39Q89.84 32.47 89.84 26.07L89.84 26.07Q89.84 19.35 92.56 14.47Q95.28 9.59 100 6.95Q104.72 4.31 110.56 4.31L110.56 4.31Q116.40 4.31 121.08 6.95Q125.76 9.59 128.52 14.43Q131.28 19.27 131.28 25.91L131.28 25.91Q131.28 32.55 128.56 37.47Q125.84 42.39 121.16 45.11Q116.48 47.83 110.56 47.83 zM110.56 41.43L110.56 41.43Q116.88 41.43 120.40 37.15Q123.92 32.87 123.92 26.07L123.92 26.07Q123.92 21.91 122.16 18.43Q120.40 14.95 117.40 12.83Q114.40 10.71 110.56 10.71L110.56 10.71Q104.24 10.71 100.72 14.87Q97.20 19.03 97.20 25.91L97.20 25.91Q97.20 30.07 98.96 33.63Q100.72 37.19 103.72 39.31Q106.72 41.43 110.56 41.43" style="fill: rgb(254, 196, 79);" transform="translate(-238.120,-23.436)"></path></g><g class="path" style="opacity: 1; transform-origin: -78.92px -5.69px; transform: matrix3d(0.91, 0, 0, 0, 0, 0.91, 0, 0, 0, 0, 0.91, 0, 0, 0, 0, 1); animation: 1s linear -0.42s infinite normal forwards running animate-i6nl1h7x5h9; transform-box: view-box;"><path d="M156.64 47.83L156.64 47.83Q151.52 47.83 147.28 45.19Q143.04 42.55 140.56 37.71Q138.08 32.87 138.08 26.31L138.08 26.31Q138.08 19.99 140.60 15.03Q143.12 10.07 147.32 7.19Q151.52 4.31 156.56 4.31L156.56 4.31Q160.72 4.31 163.72 5.99Q166.72 7.67 168.40 9.43L168.40 9.43L168.40-12.33L175.60-12.33L175.60 36.79Q175.60 39.83 177.08 40.75Q178.56 41.67 180.32 41.67L180.32 41.67L178.80 47.27Q171.20 47.27 169.52 41.19L169.52 41.19Q167.76 43.67 164.60 45.75Q161.44 47.83 156.64 47.83 zM158.24 41.43L158.24 41.43Q161.20 41.43 163.88 40.03Q166.56 38.63 168.40 36.39L168.40 36.39L168.40 15.75Q166.88 13.83 164.16 12.19Q161.44 10.55 158.16 10.55L158.16 10.55Q154.32 10.55 151.44 12.63Q148.56 14.71 147 18.19Q145.44 21.67 145.44 26.07L145.44 26.07Q145.44 30.47 147.12 33.95Q148.80 37.43 151.72 39.43Q154.64 41.43 158.24 41.43" style="fill: rgb(254, 153, 41);" transform="translate(-238.120,-23.436)"></path></g><g class="path" style="opacity: 1; transform-origin: -30.44px -4.57px; transform: matrix3d(0.91, 0, 0, 0, 0, 0.91, 0, 0, 0, 0, 0.91, 0, 0, 0, 0, 1); animation: 1s linear -0.36s infinite normal forwards running animate-i6nl1h7x5h9; transform-box: view-box;"><path d="M212.24 47.83L212.24 47.83Q204.96 47.83 199.36 44.35Q193.76 40.87 190.64 34.43Q187.52 27.99 187.52 19.11L187.52 19.11Q187.52 10.55 190.68 3.95Q193.84-2.65 199.64-6.37Q205.44-10.09 213.20-10.09L213.20-10.09Q217.20-10.09 220.48-9.33Q223.76-8.57 226.64-7.21L226.64-7.21L224.32-0.81Q221.84-2.01 219.24-2.73Q216.64-3.45 213.12-3.45L213.12-3.45Q208-3.45 203.96-0.81Q199.92 1.83 197.60 6.79Q195.28 11.75 195.28 18.79L195.28 18.79Q195.28 25.51 197.56 30.55Q199.84 35.59 203.88 38.39Q207.92 41.19 213.12 41.19L213.12 41.19Q217.04 41.19 219.92 40.23Q222.80 39.27 225.52 37.75L225.52 37.75L227.84 44.07Q224.88 45.67 221.08 46.75Q217.28 47.83 212.24 47.83" style="fill: rgb(217, 95, 14);" transform="translate(-238.120,-23.436)"></path></g><g class="path" style="opacity: 1; transform-origin: 14.44px 2.63px; transform: matrix3d(0.91, 0, 0, 0, 0, 0.91, 0, 0, 0, 0, 0.91, 0, 0, 0, 0, 1); animation: 1s linear -0.3s infinite normal forwards running animate-i6nl1h7x5h9; transform-box: view-box;"><path d="M252.56 47.83L252.56 47.83Q246.64 47.83 241.92 45.07Q237.20 42.31 234.52 37.39Q231.84 32.47 231.84 26.07L231.84 26.07Q231.84 19.35 234.56 14.47Q237.28 9.59 242 6.95Q246.72 4.31 252.56 4.31L252.56 4.31Q258.40 4.31 263.08 6.95Q267.76 9.59 270.52 14.43Q273.28 19.27 273.28 25.91L273.28 25.91Q273.28 32.55 270.56 37.47Q267.84 42.39 263.16 45.11Q258.48 47.83 252.56 47.83 zM252.56 41.43L252.56 41.43Q258.88 41.43 262.40 37.15Q265.92 32.87 265.92 26.07L265.92 26.07Q265.92 21.91 264.16 18.43Q262.40 14.95 259.40 12.83Q256.40 10.71 252.56 10.71L252.56 10.71Q246.24 10.71 242.72 14.87Q239.20 19.03 239.20 25.91L239.20 25.91Q239.20 30.07 240.96 33.63Q242.72 37.19 245.72 39.31Q248.72 41.43 252.56 41.43" style="fill: rgb(153, 52, 4);" transform="translate(-238.120,-23.436)"></path></g><g class="path" style="opacity: 1; transform-origin: 62.24px 2.15px; transform: matrix3d(0.91, 0, 0, 0, 0, 0.91, 0, 0, 0, 0, 0.91, 0, 0, 0, 0, 1); animation: 1s linear -0.24s infinite normal forwards running animate-i6nl1h7x5h9; transform-box: view-box;"><path d="M290.08 46.87L282.88 46.87L282.88 5.27L289.84 5.27L289.84 12.23Q292.08 8.87 295.56 6.59Q299.04 4.31 303.84 4.31L303.84 4.31Q310.88 4.31 314.36 8.55Q317.84 12.79 317.84 19.75L317.84 19.75L317.84 46.87L310.64 46.87L310.64 20.55Q310.64 16.07 308.52 13.35Q306.40 10.63 302.64 10.63L302.64 10.63Q298.96 10.63 295.68 13.23Q292.40 15.83 290.08 19.35L290.08 19.35L290.08 46.87" style="fill: rgb(245, 218, 142);" transform="translate(-238.120,-23.436)"></path></g><g class="path" style="opacity: 1; transform-origin: 109.6px 2.15px; transform: matrix3d(0.91, 0, 0, 0, 0, 0.91, 0, 0, 0, 0, 0.91, 0, 0, 0, 0, 1); animation: 1s linear -0.18s infinite normal forwards running animate-i6nl1h7x5h9; transform-box: view-box;"><path d="M337.44 46.87L330.24 46.87L330.24 5.27L337.20 5.27L337.20 12.23Q339.44 8.87 342.92 6.59Q346.40 4.31 351.20 4.31L351.20 4.31Q358.24 4.31 361.72 8.55Q365.20 12.79 365.20 19.75L365.20 19.75L365.20 46.87L358 46.87L358 20.55Q358 16.07 355.88 13.35Q353.76 10.63 350 10.63L350 10.63Q346.32 10.63 343.04 13.23Q339.76 15.83 337.44 19.35L337.44 19.35L337.44 46.87" style="fill: rgb(254, 227, 145);" transform="translate(-238.120,-23.436)"></path></g><g class="path" style="opacity: 1; transform-origin: 155.04px 2.63px; transform: matrix3d(0.91, 0, 0, 0, 0, 0.91, 0, 0, 0, 0, 0.91, 0, 0, 0, 0, 1); animation: 1s linear -0.12s infinite normal forwards running animate-i6nl1h7x5h9; transform-box: view-box;"><path d="M394.24 47.83L394.24 47.83Q385.28 47.83 380.04 42.11Q374.80 36.39 374.80 26.07L374.80 26.07Q374.80 19.83 377.16 14.91Q379.52 9.99 383.76 7.15Q388 4.31 393.60 4.31L393.60 4.31Q399.60 4.31 403.56 6.91Q407.52 9.51 409.52 13.91Q411.52 18.31 411.52 23.59L411.52 23.59Q411.52 26.39 411.28 29.03L411.28 29.03L382.16 29.03Q382.88 34.87 386.24 38.15Q389.60 41.43 395.12 41.43L395.12 41.43Q398.72 41.43 401.60 40.67Q404.48 39.91 407.12 38.71L407.12 38.71L408.80 44.87Q405.92 46.15 402.32 46.99Q398.72 47.83 394.24 47.83 zM382.08 23.19L382.08 23.19L404.88 23.19Q404.88 17.11 401.84 13.83Q398.80 10.55 393.44 10.55L393.44 10.55Q388.80 10.55 385.76 13.79Q382.72 17.03 382.08 23.19" style="fill: rgb(254, 196, 79);" transform="translate(-238.120,-23.436)"></path></g><g class="path" style="opacity: 1; transform-origin: 196.28px 2.63px; transform: matrix3d(0.91, 0, 0, 0, 0, 0.91, 0, 0, 0, 0, 0.91, 0, 0, 0, 0, 1); animation: 1s linear -0.06s infinite normal forwards running animate-i6nl1h7x5h9; transform-box: view-box;"><path d="M437.92 47.83L437.92 47.83Q432 47.83 427.56 45.07Q423.12 42.31 420.72 37.39Q418.32 32.47 418.32 26.07L418.32 26.07Q418.32 20.07 420.76 15.11Q423.20 10.15 427.76 7.23Q432.32 4.31 438.48 4.31L438.48 4.31Q442 4.31 444.68 4.95Q447.36 5.59 449.84 6.79L449.84 6.79L447.68 12.87Q445.44 11.75 443.40 11.23Q441.36 10.71 438.88 10.71L438.88 10.71Q433.28 10.71 429.48 14.75Q425.68 18.79 425.68 25.91L425.68 25.91Q425.68 30.23 427.28 33.75Q428.88 37.27 431.72 39.35Q434.56 41.43 438.40 41.43L438.40 41.43Q441.44 41.43 443.60 40.75Q445.76 40.07 448.24 38.79L448.24 38.79L450.48 44.87Q448 46.23 444.92 47.03Q441.84 47.83 437.92 47.83" style="fill: rgb(254, 153, 41);" transform="translate(-238.120,-23.436)"></path></g><g class="path" style="opacity: 1; transform-origin: 230.24px -2.69px; transform: matrix3d(0.91, 0, 0, 0, 0, 0.91, 0, 0, 0, 0, 0.91, 0, 0, 0, 0, 1); animation: 1s linear 0s infinite normal forwards running animate-i6nl1h7x5h9; transform-box: view-box;"><path d="M473.44 47.83L473.44 47.83Q467.44 47.83 463.96 43.87Q460.48 39.91 460.48 32.55L460.48 32.55L460.48 13.03L453.28 13.03L453.28 6.79L460.64 6.79L462.16-6.33L467.68-6.33L467.68 6.79L479.20 6.79L479.20 13.03L467.68 13.03L467.68 33.11Q467.68 37.75 469.64 39.59Q471.60 41.43 474.32 41.43L474.32 41.43Q476.32 41.43 478.12 40.79Q479.92 40.15 481.44 39.27L481.44 39.27L483.44 45.03Q481.84 45.99 479.12 46.91Q476.40 47.83 473.44 47.83" style="fill: rgb(217, 95, 14);" transform="translate(-238.120,-23.436)"></path></g></g><text dy="0.35em" fill="#f5da8e" font-family="ABeeZee" font-size="37">FoodConnect</text>
</g>
</g><style type="text/css">@keyframes animate-i6nl1h7x5h9 { 0.00% {transform: translate(0.00px,0.00px) rotate(0.00deg) scale(0.91, 0.91) skew(0deg, 0.00deg) ;opacity: 1.00;}4.00% {transform: translate(0.00px,0.00px) rotate(0.00deg) scale(0.91, 0.91) ;}8.00% {animation-timing-function: cubic-bezier(0.69,0.60,0.35,0.27);transform: translate(0.00px,0.00px) rotate(0.00deg) scale(0.91, 0.91) ;}14.00% {transform: translate(0.00px,0.00px) rotate(0.00deg) scale(0.93, 0.93) ;}18.00% {transform: translate(0.00px,0.00px) rotate(0.00deg) scale(0.94, 0.94) ;}22.00% {animation-timing-function: cubic-bezier(0.67,0.66,0.34,0.33);transform: translate(0.00px,0.00px) rotate(0.00deg) scale(0.96, 0.96) ;}26.00% {transform: translate(0.00px,0.00px) rotate(0.00deg) scale(0.97, 0.97) ;}30.00% {transform: translate(0.00px,0.00px) rotate(0.00deg) scale(0.99, 0.99) ;}34.00% {animation-timing-function: cubic-bezier(0.65,0.71,0.32,0.38);transform: translate(0.00px,0.00px) rotate(0.00deg) scale(1.01, 1.01) ;}40.00% {animation-timing-function: cubic-bezier(0.64,0.74,0.31,0.41);transform: translate(0.00px,0.00px) rotate(0.00deg) scale(1.02, 1.02) ;}46.00% {animation-timing-function: cubic-bezier(0.60,0.91,0.23,0.63);transform: translate(0.00px,0.00px) rotate(0.00deg) scale(1.03, 1.03) ;}50.00% {transform: translate(0.00px,0.00px) rotate(0.00deg) scale(1.03, 1.03) ;}54.00% {transform: translate(0.00px,0.00px) rotate(0.00deg) scale(1.03, 1.03) ;}58.00% {animation-timing-function: cubic-bezier(0.69,0.60,0.35,0.27);transform: translate(0.00px,0.00px) rotate(0.00deg) scale(1.03, 1.03) ;}64.00% {transform: translate(0.00px,0.00px) rotate(0.00deg) scale(1.01, 1.01) ;}68.00% {transform: translate(0.00px,0.00px) rotate(0.00deg) scale(1.00, 1.00) ;}72.00% {animation-timing-function: cubic-bezier(0.67,0.66,0.34,0.33);transform: translate(0.00px,0.00px) rotate(0.00deg) scale(0.98, 0.98) ;}76.00% {animation-timing-function: cubic-bezier(0.66,0.68,0.33,0.35);transform: translate(0.00px,0.00px) rotate(0.00deg) scale(0.97, 0.97) ;}82.00% {animation-timing-function: cubic-bezier(0.65,0.71,0.32,0.38);transform: translate(0.00px,0.00px) rotate(0.00deg) scale(0.94, 0.94) ;}88.00% {animation-timing-function: cubic-bezier(0.65,0.73,0.31,0.40);transform: translate(0.00px,0.00px) rotate(0.00deg) scale(0.92, 0.92) ;}94.00% {animation-timing-function: cubic-bezier(0.63,0.80,0.28,0.48);transform: translate(0.00px,0.00px) rotate(0.00deg) scale(0.91, 0.91) ;}100.00% {animation-timing-function: cubic-bezier(0.63,0.80,0.28,0.48);transform: translate(0.00px,0.00px) rotate(0.00deg) scale(0.91, 0.91) ;} }</style><!-- [ldio] generated by https://loading.io --></svg>